<svg xmlns="http://www.w3.org/2000/svg" style="display: none;">
  <symbol id="key" viewBox="0 0 22 12" xmlns="http://www.w3.org/2000/svg">
    <path d="M11.917 7C11.441 9.8377 8.973 12 6 12C2.68629 12 0 9.3137 0 6C0 2.68629 2.68629 0 6 0C8.973 0 11.441 2.16229 11.917 5H22V7H20V11H18V7H16V11H14V7H11.917ZM6 10C8.20914 10 10 8.2091 10 6C10 3.79086 8.20914 2 6 2C3.79086 2 2 3.79086 2 6C2 8.2091 3.79086 10 6 10Z" fill="currentColor" />
  </symbol>
  <symbol id="mail" viewBox="0 0 22 18" xmlns="http://www.w3.org/2000/svg">
    <path d="M21 0C21.5523 0 22 0.44772 22 1V17.0066C22 17.5552 21.5447 18 21.0082 18H2.9918C2.44405 18 2 17.5551 2 17.0066V16H20V4.3L12 11.5L2 2.5V1C2 0.44772 2.44772 0 3 0H21ZM8 12V14H0V12H8ZM5 7V9H0V7H5ZM19.5659 2H4.43414L12 8.8093L19.5659 2Z" fill="currentColor" />
  </symbol>
  <symbol id="profile" viewBox="0 0 24 24" xmlns="http://www.w3.org/2000/svg">
    <path d="M4 22C4 17.5817 7.58172 14 12 14C16.4183 14 20 17.5817 20 22H18C18 18.6863 15.3137 16 12 16C8.68629 16 6 18.6863 6 22H4ZM12 13C8.685 13 6 10.315 6 7C6 3.685 8.685 1 12 1C15.315 1 18 3.685 18 7C18 10.315 15.315 13 12 13ZM12 11C14.21 11 16 9.21 16 7C16 4.79 14.21 3 12 3C9.79 3 8 4.79 8 7C8 9.21 9.79 11 12 11Z" fill="currentColor" />
  </symbol>
  <symbol id="logo-opacity" viewBox="0 0 245 29" xmlns="http://www.w3.org/2000/svg">
    <g opacity="0.2">
      <path
        d="M12.28 28.4C11.1067 28.4 10.0533 28.3467 9.12 28.24C8.21333 28.1333 7.21333 27.9333 6.12 27.64C4.89333 27.32 3.88 26.9067 3.08 26.4C2.28 25.8667 1.61333 25.1333 1.08 24.2C0.52 23.2667 0.24 22.16 0.24 20.88V9.48C0.24 4.25333 4.25333 1.64 12.28 1.64C14.3333 1.64 17.08 1.93333 20.52 2.52V7.2C17.4267 6.45333 14.7067 6.08 12.36 6.08C11.3733 6.08 10.6 6.10667 10.04 6.16C9.50667 6.21333 8.94667 6.34667 8.36 6.56C7.10667 6.98667 6.48 7.93333 6.48 9.4V20.44C6.48 22.7867 8.62667 23.96 12.92 23.96C14.76 23.96 17.3467 23.5733 20.68 22.8V27.52C17.8267 28.1067 15.0267 28.4 12.28 28.4ZM24.5872 1.64H30.4272V6.36H24.5872V1.64ZM24.5872 8.64H30.4272V28H24.5872V8.64ZM35.7163 8.64H41.4763V11C41.9296 9.16 43.9963 8.24 47.6763 8.24C50.1563 8.24 51.8896 8.69333 52.8763 9.6C53.8896 10.48 54.3963 11.88 54.3963 13.8V28H48.5563V14.56C48.5563 13.8133 48.4763 13.2533 48.3163 12.88C48.1829 12.5067 47.8896 12.24 47.4363 12.08C47.0096 11.92 46.3429 11.84 45.4363 11.84C44.2896 11.84 43.4496 11.92 42.9163 12.08C42.3829 12.2133 42.0229 12.4667 41.8363 12.84C41.6496 13.2133 41.5563 13.7867 41.5563 14.56V28H35.7163V8.64ZM69.2253 28.4C62.372 28.4 58.9453 26.3067 58.9453 22.12V15.16C58.9453 12.7333 59.7186 10.9733 61.2653 9.88C62.8386 8.78667 65.252 8.24 68.5053 8.24C71.572 8.24 73.812 8.77333 75.2253 9.84C76.6653 10.88 77.3853 12.6533 77.3853 15.16V19.88H64.8253V21.64C64.8253 22.76 65.2253 23.56 66.0253 24.04C66.8253 24.52 68.2653 24.76 70.3453 24.76C72.2653 24.76 74.4253 24.48 76.8253 23.92V27.64C74.452 28.1467 71.9186 28.4 69.2253 28.4ZM71.8253 16.56V13.76C71.8253 13.12 71.5586 12.64 71.0253 12.32C70.5186 12 69.652 11.84 68.4253 11.84C67.012 11.84 66.0653 12 65.5853 12.32C65.0786 12.6667 64.8253 13.1467 64.8253 13.76V16.56H71.8253ZM81.8491 8.64H87.6891V11C88.0624 9.16 89.9691 8.24 93.4091 8.24C95.2224 8.24 96.5957 8.48 97.5291 8.96C98.4624 9.41333 99.0891 10.1333 99.4091 11.12C99.7291 10.1067 100.342 9.37333 101.249 8.92C102.182 8.46667 103.582 8.24 105.449 8.24C107.129 8.24 108.422 8.44 109.329 8.84C110.236 9.21333 110.862 9.8 111.209 10.6C111.582 11.4 111.769 12.4667 111.769 13.8V28H105.929V14.6C105.929 13.7467 105.876 13.1467 105.769 12.8C105.662 12.4267 105.422 12.1733 105.049 12.04C104.702 11.9067 104.089 11.84 103.209 11.84C102.116 11.84 101.329 11.9067 100.849 12.04C100.396 12.1733 100.089 12.4267 99.9291 12.8C99.7957 13.1467 99.7291 13.7467 99.7291 14.6V28H93.8891V14.6C93.8891 13.7467 93.8357 13.1467 93.7291 12.8C93.6224 12.4267 93.3824 12.1733 93.0091 12.04C92.6624 11.9067 92.0491 11.84 91.1691 11.84C90.0757 11.84 89.2891 11.9067 88.8091 12.04C88.3557 12.1733 88.0491 12.4267 87.8891 12.8C87.7557 13.1467 87.6891 13.7467 87.6891 14.6V28H81.8491V8.64ZM122.368 28.4C120.555 28.4 119.195 28.24 118.288 27.92C117.408 27.5733 116.781 26.9733 116.408 26.12C116.061 25.24 115.888 23.9333 115.888 22.2C115.888 20.6533 116.075 19.44 116.448 18.56C116.848 17.68 117.475 17.0533 118.328 16.68C119.208 16.28 120.408 16.08 121.928 16.08H128.488V14.76C128.488 13.9333 128.368 13.32 128.128 12.92C127.915 12.52 127.501 12.24 126.888 12.08C126.301 11.92 125.408 11.84 124.208 11.84C122.555 11.84 120.288 12 117.408 12.32V8.64C119.515 8.37333 121.981 8.24 124.808 8.24C127.288 8.24 129.195 8.42667 130.528 8.8C131.888 9.17333 132.861 9.81333 133.448 10.72C134.035 11.6267 134.328 12.9467 134.328 14.68V28H128.608V26.24C128.155 27.0133 127.541 27.56 126.768 27.88C125.995 28.2267 124.528 28.4 122.368 28.4ZM124.648 24.76C125.821 24.76 126.661 24.72 127.168 24.64C127.541 24.5867 127.795 24.5067 127.928 24.4C128.088 24.2933 128.221 24.12 128.328 23.88C128.435 23.6933 128.488 23.4133 128.488 23.04V19.28H124.488C123.581 19.28 122.941 19.3467 122.568 19.48C122.195 19.5867 121.941 19.8267 121.808 20.2C121.675 20.5467 121.608 21.1733 121.608 22.08C121.608 22.96 121.675 23.5733 121.808 23.92C121.941 24.2667 122.195 24.4933 122.568 24.6C122.968 24.7067 123.661 24.76 124.648 24.76ZM152.066 28.4C150.573 28.4 149.253 28.3333 148.106 28.2C146.96 28.0667 145.826 27.84 144.706 27.52C143.506 27.2 142.52 26.7733 141.746 26.24C140.973 25.68 140.346 24.96 139.866 24.08C139.386 23.1467 139.146 22.08 139.146 20.88V10.08C139.146 8.77333 139.413 7.6 139.946 6.56C140.48 5.49333 141.2 4.65333 142.106 4.04C142.96 3.48 143.973 3 145.146 2.6C146.346 2.2 147.52 1.93333 148.666 1.8C149.626 1.69333 150.786 1.64 152.146 1.64C155.826 1.64 159.346 1.92 162.706 2.48V7.2C159.613 6.45333 156.093 6.08 152.146 6.08C147.64 6.08 145.386 7.38667 145.386 10V20.44C145.386 21.72 145.986 22.6267 147.186 23.16C148.413 23.6933 150.253 23.96 152.706 23.96C154.013 23.96 155.413 23.76 156.906 23.36V17.32H152.666V13.24H162.866V26.72C161.533 27.2 159.826 27.6 157.746 27.92C155.693 28.24 153.8 28.4 152.066 28.4ZM174.389 28.4C171.909 28.4 170.163 27.96 169.149 27.08C168.163 26.1733 167.669 24.76 167.669 22.84V8.64H173.509V22.04C173.509 22.7867 173.576 23.3467 173.709 23.72C173.869 24.0933 174.163 24.36 174.589 24.52C175.043 24.68 175.723 24.76 176.629 24.76C177.776 24.76 178.616 24.6933 179.149 24.56C179.683 24.4 180.043 24.1333 180.229 23.76C180.416 23.3867 180.509 22.8133 180.509 22.04V8.64H186.349V28H180.589V25.64C180.163 27.48 178.096 28.4 174.389 28.4ZM191.618 1.64H197.458V6.36H191.618V1.64ZM191.618 8.64H197.458V28H191.618V8.64ZM210.188 28.4C207.894 28.4 206.201 28.24 205.108 27.92C204.014 27.5733 203.254 26.9333 202.827 26C202.401 25.0667 202.188 23.6133 202.188 21.64V14.08C202.188 11.9467 202.788 10.44 203.988 9.56C205.214 8.68 207.188 8.24 209.908 8.24C211.188 8.24 212.188 8.32 212.908 8.48C213.654 8.61333 214.254 8.86667 214.708 9.24C215.161 9.58667 215.628 10.1067 216.108 10.8V-1.90735e-06H221.948V28H216.308V25.8C215.828 26.5733 215.388 27.12 214.988 27.44C214.614 27.7333 214.081 27.96 213.388 28.12C212.668 28.3067 211.601 28.4 210.188 28.4ZM211.668 24.76C212.974 24.76 213.934 24.6933 214.548 24.56C215.161 24.4267 215.574 24.1867 215.788 23.84C216.001 23.4667 216.108 22.92 216.108 22.2V14.4C216.108 13.7333 215.988 13.2267 215.748 12.88C215.534 12.5067 215.134 12.24 214.548 12.08C213.988 11.92 213.134 11.84 211.988 11.84C210.761 11.84 209.881 11.92 209.348 12.08C208.814 12.2133 208.454 12.4667 208.268 12.84C208.108 13.1867 208.028 13.7733 208.028 14.6V22C208.028 22.7467 208.108 23.32 208.268 23.72C208.454 24.0933 208.801 24.36 209.308 24.52C209.814 24.68 210.601 24.76 211.668 24.76ZM236.803 28.4C229.95 28.4 226.523 26.3067 226.523 22.12V15.16C226.523 12.7333 227.297 10.9733 228.843 9.88C230.417 8.78667 232.83 8.24 236.083 8.24C239.15 8.24 241.39 8.77333 242.803 9.84C244.243 10.88 244.963 12.6533 244.963 15.16V19.88H232.403V21.64C232.403 22.76 232.803 23.56 233.603 24.04C234.403 24.52 235.843 24.76 237.923 24.76C239.843 24.76 242.003 24.48 244.403 23.92V27.64C242.03 28.1467 239.497 28.4 236.803 28.4ZM239.403 16.56V13.76C239.403 13.12 239.137 12.64 238.603 12.32C238.097 12 237.23 11.84 236.003 11.84C234.59 11.84 233.643 12 233.163 12.32C232.657 12.6667 232.403 13.1467 232.403 13.76V16.56H239.403Z"
        fill="black" />
      <path
        d="M12.28 28.4C11.1067 28.4 10.0533 28.3467 9.12 28.24C8.21333 28.1333 7.21333 27.9333 6.12 27.64C4.89333 27.32 3.88 26.9067 3.08 26.4C2.28 25.8667 1.61333 25.1333 1.08 24.2C0.52 23.2667 0.24 22.16 0.24 20.88V9.48C0.24 4.25333 4.25333 1.64 12.28 1.64C14.3333 1.64 17.08 1.93333 20.52 2.52V7.2C17.4267 6.45333 14.7067 6.08 12.36 6.08C11.3733 6.08 10.6 6.10667 10.04 6.16C9.50667 6.21333 8.94667 6.34667 8.36 6.56C7.10667 6.98667 6.48 7.93333 6.48 9.4V20.44C6.48 22.7867 8.62667 23.96 12.92 23.96C14.76 23.96 17.3467 23.5733 20.68 22.8V27.52C17.8267 28.1067 15.0267 28.4 12.28 28.4ZM24.5872 1.64H30.4272V6.36H24.5872V1.64ZM24.5872 8.64H30.4272V28H24.5872V8.64ZM35.7163 8.64H41.4763V11C41.9296 9.16 43.9963 8.24 47.6763 8.24C50.1563 8.24 51.8896 8.69333 52.8763 9.6C53.8896 10.48 54.3963 11.88 54.3963 13.8V28H48.5563V14.56C48.5563 13.8133 48.4763 13.2533 48.3163 12.88C48.1829 12.5067 47.8896 12.24 47.4363 12.08C47.0096 11.92 46.3429 11.84 45.4363 11.84C44.2896 11.84 43.4496 11.92 42.9163 12.08C42.3829 12.2133 42.0229 12.4667 41.8363 12.84C41.6496 13.2133 41.5563 13.7867 41.5563 14.56V28H35.7163V8.64ZM69.2253 28.4C62.372 28.4 58.9453 26.3067 58.9453 22.12V15.16C58.9453 12.7333 59.7186 10.9733 61.2653 9.88C62.8386 8.78667 65.252 8.24 68.5053 8.24C71.572 8.24 73.812 8.77333 75.2253 9.84C76.6653 10.88 77.3853 12.6533 77.3853 15.16V19.88H64.8253V21.64C64.8253 22.76 65.2253 23.56 66.0253 24.04C66.8253 24.52 68.2653 24.76 70.3453 24.76C72.2653 24.76 74.4253 24.48 76.8253 23.92V27.64C74.452 28.1467 71.9186 28.4 69.2253 28.4ZM71.8253 16.56V13.76C71.8253 13.12 71.5586 12.64 71.0253 12.32C70.5186 12 69.652 11.84 68.4253 11.84C67.012 11.84 66.0653 12 65.5853 12.32C65.0786 12.6667 64.8253 13.1467 64.8253 13.76V16.56H71.8253ZM81.8491 8.64H87.6891V11C88.0624 9.16 89.9691 8.24 93.4091 8.24C95.2224 8.24 96.5957 8.48 97.5291 8.96C98.4624 9.41333 99.0891 10.1333 99.4091 11.12C99.7291 10.1067 100.342 9.37333 101.249 8.92C102.182 8.46667 103.582 8.24 105.449 8.24C107.129 8.24 108.422 8.44 109.329 8.84C110.236 9.21333 110.862 9.8 111.209 10.6C111.582 11.4 111.769 12.4667 111.769 13.8V28H105.929V14.6C105.929 13.7467 105.876 13.1467 105.769 12.8C105.662 12.4267 105.422 12.1733 105.049 12.04C104.702 11.9067 104.089 11.84 103.209 11.84C102.116 11.84 101.329 11.9067 100.849 12.04C100.396 12.1733 100.089 12.4267 99.9291 12.8C99.7957 13.1467 99.7291 13.7467 99.7291 14.6V28H93.8891V14.6C93.8891 13.7467 93.8357 13.1467 93.7291 12.8C93.6224 12.4267 93.3824 12.1733 93.0091 12.04C92.6624 11.9067 92.0491 11.84 91.1691 11.84C90.0757 11.84 89.2891 11.9067 88.8091 12.04C88.3557 12.1733 88.0491 12.4267 87.8891 12.8C87.7557 13.1467 87.6891 13.7467 87.6891 14.6V28H81.8491V8.64ZM122.368 28.4C120.555 28.4 119.195 28.24 118.288 27.92C117.408 27.5733 116.781 26.9733 116.408 26.12C116.061 25.24 115.888 23.9333 115.888 22.2C115.888 20.6533 116.075 19.44 116.448 18.56C116.848 17.68 117.475 17.0533 118.328 16.68C119.208 16.28 120.408 16.08 121.928 16.08H128.488V14.76C128.488 13.9333 128.368 13.32 128.128 12.92C127.915 12.52 127.501 12.24 126.888 12.08C126.301 11.92 125.408 11.84 124.208 11.84C122.555 11.84 120.288 12 117.408 12.32V8.64C119.515 8.37333 121.981 8.24 124.808 8.24C127.288 8.24 129.195 8.42667 130.528 8.8C131.888 9.17333 132.861 9.81333 133.448 10.72C134.035 11.6267 134.328 12.9467 134.328 14.68V28H128.608V26.24C128.155 27.0133 127.541 27.56 126.768 27.88C125.995 28.2267 124.528 28.4 122.368 28.4ZM124.648 24.76C125.821 24.76 126.661 24.72 127.168 24.64C127.541 24.5867 127.795 24.5067 127.928 24.4C128.088 24.2933 128.221 24.12 128.328 23.88C128.435 23.6933 128.488 23.4133 128.488 23.04V19.28H124.488C123.581 19.28 122.941 19.3467 122.568 19.48C122.195 19.5867 121.941 19.8267 121.808 20.2C121.675 20.5467 121.608 21.1733 121.608 22.08C121.608 22.96 121.675 23.5733 121.808 23.92C121.941 24.2667 122.195 24.4933 122.568 24.6C122.968 24.7067 123.661 24.76 124.648 24.76ZM152.066 28.4C150.573 28.4 149.253 28.3333 148.106 28.2C146.96 28.0667 145.826 27.84 144.706 27.52C143.506 27.2 142.52 26.7733 141.746 26.24C140.973 25.68 140.346 24.96 139.866 24.08C139.386 23.1467 139.146 22.08 139.146 20.88V10.08C139.146 8.77333 139.413 7.6 139.946 6.56C140.48 5.49333 141.2 4.65333 142.106 4.04C142.96 3.48 143.973 3 145.146 2.6C146.346 2.2 147.52 1.93333 148.666 1.8C149.626 1.69333 150.786 1.64 152.146 1.64C155.826 1.64 159.346 1.92 162.706 2.48V7.2C159.613 6.45333 156.093 6.08 152.146 6.08C147.64 6.08 145.386 7.38667 145.386 10V20.44C145.386 21.72 145.986 22.6267 147.186 23.16C148.413 23.6933 150.253 23.96 152.706 23.96C154.013 23.96 155.413 23.76 156.906 23.36V17.32H152.666V13.24H162.866V26.72C161.533 27.2 159.826 27.6 157.746 27.92C155.693 28.24 153.8 28.4 152.066 28.4ZM174.389 28.4C171.909 28.4 170.163 27.96 169.149 27.08C168.163 26.1733 167.669 24.76 167.669 22.84V8.64H173.509V22.04C173.509 22.7867 173.576 23.3467 173.709 23.72C173.869 24.0933 174.163 24.36 174.589 24.52C175.043 24.68 175.723 24.76 176.629 24.76C177.776 24.76 178.616 24.6933 179.149 24.56C179.683 24.4 180.043 24.1333 180.229 23.76C180.416 23.3867 180.509 22.8133 180.509 22.04V8.64H186.349V28H180.589V25.64C180.163 27.48 178.096 28.4 174.389 28.4ZM191.618 1.64H197.458V6.36H191.618V1.64ZM191.618 8.64H197.458V28H191.618V8.64ZM210.188 28.4C207.894 28.4 206.201 28.24 205.108 27.92C204.014 27.5733 203.254 26.9333 202.827 26C202.401 25.0667 202.188 23.6133 202.188 21.64V14.08C202.188 11.9467 202.788 10.44 203.988 9.56C205.214 8.68 207.188 8.24 209.908 8.24C211.188 8.24 212.188 8.32 212.908 8.48C213.654 8.61333 214.254 8.86667 214.708 9.24C215.161 9.58667 215.628 10.1067 216.108 10.8V-1.90735e-06H221.948V28H216.308V25.8C215.828 26.5733 215.388 27.12 214.988 27.44C214.614 27.7333 214.081 27.96 213.388 28.12C212.668 28.3067 211.601 28.4 210.188 28.4ZM211.668 24.76C212.974 24.76 213.934 24.6933 214.548 24.56C215.161 24.4267 215.574 24.1867 215.788 23.84C216.001 23.4667 216.108 22.92 216.108 22.2V14.4C216.108 13.7333 215.988 13.2267 215.748 12.88C215.534 12.5067 215.134 12.24 214.548 12.08C213.988 11.92 213.134 11.84 211.988 11.84C210.761 11.84 209.881 11.92 209.348 12.08C208.814 12.2133 208.454 12.4667 208.268 12.84C208.108 13.1867 208.028 13.7733 208.028 14.6V22C208.028 22.7467 208.108 23.32 208.268 23.72C208.454 24.0933 208.801 24.36 209.308 24.52C209.814 24.68 210.601 24.76 211.668 24.76ZM236.803 28.4C229.95 28.4 226.523 26.3067 226.523 22.12V15.16C226.523 12.7333 227.297 10.9733 228.843 9.88C230.417 8.78667 232.83 8.24 236.083 8.24C239.15 8.24 241.39 8.77333 242.803 9.84C244.243 10.88 244.963 12.6533 244.963 15.16V19.88H232.403V21.64C232.403 22.76 232.803 23.56 233.603 24.04C234.403 24.52 235.843 24.76 237.923 24.76C239.843 24.76 242.003 24.48 244.403 23.92V27.64C242.03 28.1467 239.497 28.4 236.803 28.4ZM239.403 16.56V13.76C239.403 13.12 239.137 12.64 238.603 12.32C238.097 12 237.23 11.84 236.003 11.84C234.59 11.84 233.643 12 233.163 12.32C232.657 12.6667 232.403 13.1467 232.403 13.76V16.56H239.403Z"
        fill="url(#paint0_linear_9_1266)" />
    </g>
    <defs>
      <linearGradient id="paint0_linear_9_1266" x1="-2" y1="-6" x2="211.931" y2="103.509" gradientUnits="userSpaceOnUse">
        <stop offset="0.2" stop-color="#6A5DC2" />
        <stop offset="0.8" stop-color="#DC5DFC" />
      </linearGradient>
    </defs>
  </symbol>
  <symbol id="search" viewBox="0 0 24 24" xmlns="http://www.w3.org/2000/svg">
    <path d="M18.031 16.6168L22.3137 20.8995L20.8995 22.3137L16.6168 18.031C15.0769 19.263 13.124 20 11 20C6.032 20 2 15.968 2 11C2 6.032 6.032 2 11 2C15.968 2 20 6.032 20 11C20 13.124 19.263 15.0769 18.031 16.6168ZM16.0247 15.8748C17.2475 14.6146 18 12.8956 18 11C18 7.1325 14.8675 4 11 4C7.1325 4 4 7.1325 4 11C4 14.8675 7.1325 18 11 18C12.8956 18 14.6146 17.2475 15.8748 16.0247L16.0247 15.8748Z" fill="currentColor" />
  </symbol>
  <symbol id="favorite" viewBox="0 0 24 24" fill="currentColor" xmlns="http://www.w3.org/2000/svg">
    <path d="M16.5 3C19.5376 3 22 5.5 22 9C22 16 14.5 20 12 21.5C9.5 20 2 16 2 9C2 5.5 4.5 3 7.5 3C9.35997 3 11 4 12 5C13 4 14.64 3 16.5 3ZM12.9339 18.6038C13.8155 18.0485 14.61 17.4955 15.3549 16.9029C18.3337 14.533 20 11.9435 20 9C20 6.64076 18.463 5 16.5 5C15.4241 5 14.2593 5.56911 13.4142 6.41421L12 7.82843L10.5858 6.41421C9.74068 5.56911 8.5759 5 7.5 5C5.55906 5 4 6.6565 4 9C4 11.9435 5.66627 14.533 8.64514 16.9029C9.39 17.4955 10.1845 18.0485 11.0661 18.6038C11.3646 18.7919 11.6611 18.9729 12 19.1752C12.3389 18.9729 12.6354 18.7919 12.9339 18.6038Z" fill="currentColor" />
  </symbol>
  <symbol id="favorite-on" viewBox="0 0 24 24" xmlns="http://www.w3.org/2000/svg">
    <path d="M16.5 3C19.5376 3 22 5.5 22 9C22 16 14.5 20 12 21.5C9.5 20 2 16 2 9C2 5.5 4.5 3 7.5 3C9.35997 3 11 4 12 5C13 4 14.64 3 16.5 3Z" fill="#B4A9FF" />
  </symbol>
  <symbol id="refresh" viewBox="0 0 24 24" xmlns="http://www.w3.org/2000/svg">
    <path d="M12 4C14.7486 4 17.1749 5.38626 18.6156 7.5H16V9.5H22V3.5H20V5.99936C18.1762 3.57166 15.2724 2 12 2C6.47715 2 2 6.47715 2 12H4C4 7.58172 7.58172 4 12 4ZM20 12C20 16.4183 16.4183 20 12 20C9.25144 20 6.82508 18.6137 5.38443 16.5H8V14.5H2V20.5H4V18.0006C5.82381 20.4283 8.72764 22 12 22C17.5228 22 22 17.5228 22 12H20Z" fill="currentColor" />
  </symbol>
  <symbol id="vk" viewBox="0 0 36 36" xmlns="http://www.w3.org/2000/svg">
    <rect x="0.5" y="0.5" width="35" height="35" rx="7.5" stroke="white" stroke-opacity="0.8" />
    <path fill-rule="evenodd" clip-rule="evenodd"
      d="M26.4865 14.3797C26.6253 13.9851 26.4865 13.6981 25.8719 13.6981H23.8298C23.3144 13.6981 23.0764 13.9492 22.9377 14.2183C22.9377 14.2183 21.8869 16.5141 20.4198 18.0027C19.9439 18.4332 19.7259 18.5767 19.4682 18.5767C19.3293 18.5767 19.1509 18.4332 19.1509 18.0386V14.3617C19.1509 13.8954 18.9923 13.6802 18.5561 13.6802H15.3444C15.0271 13.6802 14.8289 13.8954 14.8289 14.1106C14.8289 14.5591 15.5624 14.6667 15.6417 15.9222V18.6484C15.6417 19.2403 15.5228 19.3479 15.2651 19.3479C14.5711 19.3479 12.886 17.0342 11.8748 14.3976C11.6765 13.8775 11.4783 13.6802 10.9629 13.6802H8.90093C8.30617 13.6802 8.20703 13.9313 8.20703 14.2003C8.20703 14.6846 8.90093 17.1239 11.4386 20.3524C13.1239 22.5585 15.5228 23.7422 17.6838 23.7422C18.9923 23.7422 19.1509 23.4732 19.1509 23.0248V21.3568C19.1509 20.8187 19.2699 20.729 19.6862 20.729C19.9836 20.729 20.5189 20.8725 21.7283 21.9307C23.1161 23.1862 23.354 23.7602 24.1272 23.7602H26.1693C26.764 23.7602 27.0416 23.4911 26.883 22.971C26.7046 22.4509 26.0305 21.6976 25.1582 20.8007C24.6823 20.2986 23.9686 19.7426 23.7505 19.4735C23.4531 19.1148 23.5324 18.9713 23.7505 18.6484C23.7307 18.6484 26.2287 15.4559 26.4865 14.3797Z" fill="white"
      fill-opacity="0.8" />
  </symbol>
  <symbol id="youtube" viewBox="0 0 36 36" xmlns="http://www.w3.org/2000/svg">
    <rect x="0.5" y="0.5" width="35" height="35" rx="7.5" stroke="white" stroke-opacity="0.8" />
    <path fill-rule="evenodd" clip-rule="evenodd" d="M24.0013 13.0496C24.6622 13.2309 25.1827 13.7653 25.3593 14.4439C25.6803 15.6738 25.6803 18.24 25.6803 18.24C25.6803 18.24 25.6803 20.8061 25.3593 22.036C25.1827 22.7146 24.6622 23.249 24.0013 23.4305C22.8035 23.76 18.0003 23.76 18.0003 23.76C18.0003 23.76 13.1971 23.76 11.9993 23.4305C11.3383 23.249 10.8179 22.7146 10.6412 22.036C10.3203 20.8061 10.3203 18.24 10.3203 18.24C10.3203 18.24 10.3203 15.6738 10.6412 14.4439C10.8179 13.7653 11.3383 13.2309 11.9993 13.0496C13.1971 12.72 18.0003 12.72 18.0003 12.72C18.0003 12.72 22.8035 12.72 24.0013 13.0496ZM16.5603 16.0802V20.8802L20.4003 18.4803L16.5603 16.0802Z" fill="white" fill-opacity="0.8" />
  </symbol>
  <symbol id="ok" viewBox="0 0 36 36" xmlns="http://www.w3.org/2000/svg">
    <rect x="0.5" y="0.5" width="35" height="35" rx="7.5" stroke="white" stroke-opacity="0.8" />
    <path d="M19.919 22.2622L22.5725 24.8238C23.116 25.3474 23.116 26.1978 22.5725 26.722C22.0294 27.2462 21.1493 27.2462 20.6069 26.722L17.998 24.2048L15.3914 26.722C15.1196 26.9838 14.7635 27.1149 14.4074 27.1149C14.0518 27.1149 13.6962 26.9838 13.4244 26.722C12.8814 26.1978 12.8814 25.348 13.4238 24.8238L16.0776 22.2622C15.1114 22.0497 14.1796 21.6802 13.3213 21.1604C12.6718 20.7651 12.4767 19.9369 12.8859 19.3094C13.2941 18.681 14.1523 18.4919 14.803 18.8872C16.7461 20.0671 19.2493 20.0674 21.1936 18.8872C21.8443 18.4919 22.7023 18.681 23.1112 19.3094C23.5205 19.9364 23.3248 20.7651 22.6753 21.1604C21.817 21.6807 20.8852 22.0497 19.919 22.2622Z" fill="white" fill-opacity="0.8" />
    <path fill-rule="evenodd" clip-rule="evenodd" d="M13.2402 13.9419C13.2402 16.4679 15.3691 18.5226 17.9868 18.5226C20.605 18.5226 22.7333 16.4679 22.7333 13.9419C22.7333 11.4151 20.605 9.35986 17.9868 9.35986C15.3691 9.35986 13.2402 11.4151 13.2402 13.9419ZM19.952 13.9414C19.952 12.8953 19.0705 12.0446 17.9867 12.0446C16.9038 12.0446 16.0214 12.8953 16.0214 13.9414C16.0214 14.9868 16.9038 15.838 17.9867 15.838C19.0705 15.838 19.952 14.9868 19.952 13.9414Z" fill="white" fill-opacity="0.8" />
  </symbol>
  <symbol id="tg" viewBox="0 0 36 36" xmlns="http://www.w3.org/2000/svg">
    <rect x="0.5" y="0.5" width="35" height="35" rx="7.5" stroke="white" stroke-opacity="0.8" />
    <path d="M8.60008 17.8588C10.2834 16.9315 12.1625 16.1576 13.9182 15.3798C16.9388 14.1058 19.9713 12.8538 23.0344 11.6882C23.6304 11.4896 24.7012 11.2954 24.8062 12.1786C24.7487 13.4288 24.5122 14.6716 24.35 15.9145C23.9382 18.6476 23.4623 21.3713 22.9982 24.0955C22.8383 25.0028 21.7016 25.4726 20.9742 24.8919C19.2263 23.7112 17.465 22.5421 15.7394 21.334C15.1741 20.7596 15.6983 19.9348 16.2031 19.5247C17.6427 18.1059 19.1695 16.9005 20.5339 15.4084C20.9019 14.5196 19.8145 15.2687 19.4558 15.4982C17.4849 16.8563 15.5623 18.2974 13.4844 19.4911C12.423 20.0753 11.1859 19.576 10.125 19.25C9.17372 18.8561 7.77979 18.4594 8.59999 17.8588L8.60008 17.8588Z" fill="white" fill-opacity="0.8" />
  </symbol>
  <symbol id="copyright" viewBox="0 0 24 24" xmlns="http://www.w3.org/2000/svg">
    <path d="M16.2877 9.42773C15.413 7.97351 13.8195 7 12 7C9.23999 7 7 9.23999 7 12C7 14.76 9.23999 17 12 17C13.8195 17 15.413 16.0265 16.2877 14.5723L14.5729 13.5442C14.0483 14.4166 13.0927 15 12 15C10.3425 15 9 13.6575 9 12C9 10.3425 10.3425 9 12 9C13.093 9 14.0491 9.58386 14.5735 10.4568L16.2877 9.42773ZM22 12C22 6.47998 17.52 2 12 2C6.47998 2 2 6.47998 2 12C2 17.52 6.47998 22 12 22C17.52 22 22 17.52 22 12ZM4 12C4 7.57996 7.57996 4 12 4C16.42 4 20 7.57996 20 12C20 16.42 16.42 20 12 20C7.57996 20 4 16.42 4 12Z" fill="white" fill-opacity="0.7" />
  </symbol>
  <symbol id="close-icon" viewBox="0 0 24 24" xmlns="http://www.w3.org/2000/svg">
    <path d="M10.5859 12L2.79297 4.20706L4.20718 2.79285L12.0001 10.5857L19.793 2.79285L21.2072 4.20706L13.4143 12L21.2072 19.7928L19.793 21.2071L12.0001 13.4142L4.20718 21.2071L2.79297 19.7928L10.5859 12Z" fill="black" />
  </symbol>
  <symbol id="arrow-back" viewBox="0 0 40 40" xmlns="http://www.w3.org/2000/svg">
    <path d="M18.047 20.0012L26.2967 28.2507L23.9397 30.6077L13.333 20.0012L23.9397 9.39453L26.2967 11.7515L18.047 20.0012Z" fill="white" />
  </symbol>
  <symbol id="profile-icon" viewBox="0 0 24 24" xmlns="http://www.w3.org/2000/svg">
    <path d="M4 22C4 17.5817 7.58172 14 12 14C16.4183 14 20 17.5817 20 22H18C18 18.6863 15.3137 16 12 16C8.68629 16 6 18.6863 6 22H4ZM12 13C8.685 13 6 10.315 6 7C6 3.685 8.685 1 12 1C15.315 1 18 3.685 18 7C18 10.315 15.315 13 12 13ZM12 11C14.21 11 16 9.21 16 7C16 4.79 14.21 3 12 3C9.79 3 8 4.79 8 7C8 9.21 9.79 11 12 11Z" fill="white" />
  </symbol>
  <symbol id="profile-icon-fill" viewBox="0 0 24 24" xmlns="http://www.w3.org/2000/svg">
    <path d="M4 22C4 17.5817 7.58172 14 12 14C16.4183 14 20 17.5817 20 22H4ZM12 13C8.685 13 6 10.315 6 7C6 3.685 8.685 1 12 1C15.315 1 18 3.685 18 7C18 10.315 15.315 13 12 13Z" fill="white" />
  </symbol>
  <symbol id="email-icon" viewBox="0 0 24 24" xmlns="http://www.w3.org/2000/svg">
    <path d="M21 3C21.5523 3 22 3.44772 22 4V20.0066C22 20.5552 21.5447 21 21.0082 21H2.9918C2.44405 21 2 20.5551 2 20.0066V19H20V7.3L12 14.5L2 5.5V4C2 3.44772 2.44772 3 3 3H21ZM8 15V17H0V15H8ZM5 10V12H0V10H5ZM19.5659 5H4.43414L12 11.8093L19.5659 5Z" fill="white" />
  </symbol>
  <symbol id="icon-star" viewBox="0 0 16 16" xmlns="http://www.w3.org/2000/svg">
    <path d="M8.00105 12.1734L3.29875 14.8055L4.34897 9.51997L0.392578 5.86124L5.74394 5.22675L8.00105 0.333374L10.2581 5.22675L15.6095 5.86124L11.6531 9.51997L12.7033 14.8055L8.00105 12.1734Z" fill="white" />
  </symbol>
  <symbol id="video-load" viewBox="0 0 40 40" xmlns="http://www.w3.org/2000/svg">
    <path d="M30.6067 9.3934L28.2495 11.7504C26.1383 9.63917 23.2217 8.33333 20 8.33333C13.5567 8.33333 8.33333 13.5567 8.33333 20C8.33333 26.4433 13.5567 31.6667 20 31.6667C26.4433 31.6667 31.6667 26.4433 31.6667 20H35C35 28.2843 28.2843 35 20 35C11.7157 35 5 28.2843 5 20C5 11.7157 11.7157 5 20 5C24.1422 5 27.8922 6.67893 30.6067 9.3934Z" fill="white" />
  </symbol>
  <symbol id="video-play" viewBox="0 0 40 40" xmlns="http://www.w3.org/2000/svg">
    <path d="M10 33.6594V6.34023C10 5.03118 11.4399 4.2331 12.55 4.9269L34.4053 18.5865C35.4498 19.2392 35.4498 20.7604 34.4053 21.4132L12.55 35.0727C11.4399 35.7665 10 34.9685 10 33.6594Z" fill="black" />
  </symbol>
  <symbol id="video-stop" viewBox="0 0 40 40" xmlns="http://www.w3.org/2000/svg">
    <path d="M10 5H13.3333V35H10V5ZM26.6667 5H30V35H26.6667V5Z" fill="black" />
  </symbol>
  <symbol id="genres-mobile" viewBox="0 0 24 24" xmlns="http://www.w3.org/2000/svg">
    <path d="M7 11.5C4.51472 11.5 2.5 9.48528 2.5 7C2.5 4.51472 4.51472 2.5 7 2.5C9.48528 2.5 11.5 4.51472 11.5 7C11.5 9.48528 9.48528 11.5 7 11.5ZM7 21.5C4.51472 21.5 2.5 19.4853 2.5 17C2.5 14.5147 4.51472 12.5 7 12.5C9.48528 12.5 11.5 14.5147 11.5 17C11.5 19.4853 9.48528 21.5 7 21.5ZM17 11.5C14.5147 11.5 12.5 9.48528 12.5 7C12.5 4.51472 14.5147 2.5 17 2.5C19.4853 2.5 21.5 4.51472 21.5 7C21.5 9.48528 19.4853 11.5 17 11.5ZM17 21.5C14.5147 21.5 12.5 19.4853 12.5 17C12.5 14.5147 14.5147 12.5 17 12.5C19.4853 12.5 21.5 14.5147 21.5 17C21.5 19.4853 19.4853 21.5 17 21.5ZM7 9.5C8.38071 9.5 9.5 8.38071 9.5 7C9.5 5.61929 8.38071 4.5 7 4.5C5.61929 4.5 4.5 5.61929 4.5 7C4.5 8.38071 5.61929 9.5 7 9.5ZM7 19.5C8.38071 19.5 9.5 18.3807 9.5 17C9.5 15.6193 8.38071 14.5 7 14.5C5.61929 14.5 4.5 15.6193 4.5 17C4.5 18.3807 5.61929 19.5 7 19.5ZM17 9.5C18.3807 9.5 19.5 8.38071 19.5 7C19.5 5.61929 18.3807 4.5 17 4.5C15.6193 4.5 14.5 5.61929 14.5 7C14.5 8.38071 15.6193 9.5 17 9.5ZM17 19.5C18.3807 19.5 19.5 18.3807 19.5 17C19.5 15.6193 18.3807 14.5 17 14.5C15.6193 14.5 14.5 15.6193 14.5 17C14.5 18.3807 15.6193 19.5 17 19.5Z" fill="white" />
  </symbol>
  <symbol id="profile-mobile" viewBox="0 0 24 24" xmlns="http://www.w3.org/2000/svg">
    <path d="M4 22C4 17.5817 7.58172 14 12 14C16.4183 14 20 17.5817 20 22H18C18 18.6863 15.3137 16 12 16C8.68629 16 6 18.6863 6 22H4ZM12 13C8.685 13 6 10.315 6 7C6 3.685 8.685 1 12 1C15.315 1 18 3.685 18 7C18 10.315 15.315 13 12 13ZM12 11C14.21 11 16 9.21 16 7C16 4.79 14.21 3 12 3C9.79 3 8 4.79 8 7C8 9.21 9.79 11 12 11Z" fill="white" />
  </symbol>
  <symbol id="search-mobile" viewBox="0 0 24 24" xmlns="http://www.w3.org/2000/svg">
    <path d="M18.031 16.6168L22.3137 20.8995L20.8995 22.3137L16.6168 18.031C15.0769 19.263 13.124 20 11 20C6.032 20 2 15.968 2 11C2 6.032 6.032 2 11 2C15.968 2 20 6.032 20 11C20 13.124 19.263 15.0769 18.031 16.6168ZM16.0247 15.8748C17.2475 14.6146 18 12.8956 18 11C18 7.1325 14.8675 4 11 4C7.1325 4 4 7.1325 4 11C4 14.8675 7.1325 18 11 18C12.8956 18 14.6146 17.2475 15.8748 16.0247L16.0247 15.8748Z" fill="white" />
  </symbol>
  <symbol id="search-close" viewBox="0 0 24 24" xmlns="http://www.w3.org/2000/svg">
    <path d="M11.9997 10.5865L16.9495 5.63672L18.3637 7.05093L13.4139 12.0007L18.3637 16.9504L16.9495 18.3646L11.9997 13.4149L7.04996 18.3646L5.63574 16.9504L10.5855 12.0007L5.63574 7.05093L7.04996 5.63672L11.9997 10.5865Z" fill="white" fill-opacity="0.5" />
  </symbol>
  <path d="M11.9997 10.5865L16.9495 5.63672L18.3637 7.05093L13.4139 12.0007L18.3637 16.9504L16.9495 18.3646L11.9997 13.4149L7.04996 18.3646L5.63574 16.9504L10.5855 12.0007L5.63574 7.05093L7.04996 5.63672L11.9997 10.5865Z" fill="white" />
  </symbol>
</svg>